<svg id="Layer" xmlns="http://www.w3.org/2000/svg" viewBox="0 0 24 24"><path fill="#25314C" fill-rule="nonzero" d="M4.5,1H19.5A3.5,3.5,0,0,1,23,4.5V19.5A3.5,3.5,0,0,1,19.5,23H4.5A3.5,3.5,0,0,1,1,19.5V4.5A3.5,3.5,0,0,1,4.5,1ZM19.5,2.5H4.5A2,2,0,0,0,2.5,4.5V19.5A2,2,0,0,0,4.5,21.5H19.5A2,2,0,0,0,21.5,19.5V4.5A2,2,0,0,0,19.5,2.5ZM 10.816 6.869 L 10.816 18.71 L 9.236 18.71 L 9.236 6.869 L 4.5 6.869 L 4.5 5.29 L 15.553 5.29 L 15.553 6.869 L 10.816 6.869 Z M 17.132 13.184 L 17.132 18.71 L 15.553 18.71 L 15.553 13.184 L 13.185 13.184 L 13.185 11.606 L 19.5 11.606 L 19.5 13.184 L 17.132 13.184 Z"/></svg>